<?xml version="1.0" encoding="utf-8"?>
<!-- Generator: Adobe Illustrator 26.0.2, SVG Export Plug-In . SVG Version: 6.00 Build 0)  -->
<svg version="1.1" xmlns="http://www.w3.org/2000/svg" xmlns:xlink="http://www.w3.org/1999/xlink" x="0px" y="0px"
	 viewBox="0 0 3000 3700" style="enable-background:new 0 0 3000 3700;" xml:space="preserve">
<style type="text/css">
	.st0{fill:#004FFF;}
	.st1{fill:#F0C431;}
	.st2{clip-path:url(#SVGID_00000147929144568508849950000000302539797626324143_);}
	.st3{fill:#F6FAF8;}
	.st4{fill:#FF78FF;}
	.st5{fill:#33348E;}
	.st6{clip-path:url(#SVGID_00000039847981198937290440000012927974012777129644_);fill:#FFFFFF;}
</style>
<g id="BACKGROUND">
	<rect class="st0" width="3000" height="3700"/>
</g>
<g id="OBJECTS">
	<circle class="st1" cx="1500" cy="1669.7" r="1343.1"/>
	<g>
		<defs>
			<rect id="SVGID_1_" width="3000" height="3700"/>
		</defs>
		<clipPath id="SVGID_00000151508973366599480320000013259858948693869463_">
			<use xlink:href="#SVGID_1_"  style="overflow:visible;"/>
		</clipPath>
		<g style="clip-path:url(#SVGID_00000151508973366599480320000013259858948693869463_);">
			<path class="st3" d="M2726.3,2331.2c-117.4,156.6-117.4,156.6-117.4,156.6s2.4,89.5-12.8,139.8c-15.2,50.3-328.3,179-350.7,167.8
				c-22.4-11.2-240.5-268.4-464.2-290.8c-223.7-22.4-322.8,111.8-396.3,402.6c-14.8,58.7-32.8,132.4-52.6,213.3
				c-4.8,19.7-9.8,39.8-14.8,60.2c-19.9,81.1-41.3,166.9-62.8,250.4c-21.2,82.2-42.5,162-62.7,232.7c-38.2,133-72.8,233.4-96,255.6
				c-64.2,61.5-1160.3,55.9-1160.3,55.9V1967.7c0,0,42.2-40,108.8-102.6c67.6-63.4,160.3-150,259.8-241.6
				c28.7-26.4,57.9-53.2,87.3-80c66.1-60.3,132.8-120.5,195-175.5c63.8-56.5,123-107.6,172-148c45.2-37.2,81.8-65.3,105.5-80
				c18.5-11.5,38.4-23.7,59.5-36.3c164.1-97.8,403.6-217.1,656.3-174.2c71.2,12.1,155.2,33.3,241.5,59.4c26.4,8,53.1,16.5,79.6,25.2
				c0,0,0,0,0,0c159.4,52.8,315.5,117.6,402.6,167.9c0,0,0,0,0,0c41,23.7,66.7,44.1,70.3,58.6c1.5,6.1,4.3,15.2,8.2,26.8
				c39.1,116,191.6,486.7,344.1,700.2C2894.1,2202.5,2843.8,2174.6,2726.3,2331.2z"/>
			<g>
				<path class="st4" d="M2617.3,2155c71.3,58.7,92.3,5.5,117.4-22.4c21.3-23.6,70.7-9.2,91.3,69.3c22.7-47.8,0-94.6-99.7-234.2
					c-167.8-234.9-335.5-659.9-352.3-727c-16.8-67.1-508.9-262.8-794.1-311.2c-285.2-48.4-553.6,109.9-715.8,210.5
					s-928.3,827.7-928.3,827.7v2007.6c0,0,456.9,2.3,798-12.6c24-20.5,53.1-45.4,88.4-75.5c201.3-172,247.5-595.6,243.3-771.7
					c-4.2-176.2,29.4-289.4,83.9-478.1s-25.2-574.6,41.9-770.7c67.1-196.1,117.4-160.4,247.5-126.9s188.7,37.7,281.7,4.2
					c93-33.6,125.1-12.6,125.1-12.6s-197.1-234.9-96.5-415.2c100.7-180.3,373.3-79.7,415.2,0c41.9,79.7,75.5,213.9,117.4,273.4
					c41.9,59.5,29.4,125.1-79.7,210.4c-109,85.4-272.6,15.3-314.6,99.2s134.2,310.4,218.1,482.3c83.9,172,121.6,92.3,251.7,106.3
					c130,14,251.7,0,251.7,0s0,0,53.1-70.8c-32.5-45.9-91.1-131.7-111.9-182.2C2520.8,2163.4,2546,2096.3,2617.3,2155z"/>
				<path class="st5" d="M2826,2201.9c-20.6-78.5-70-92.9-91.3-69.3c-25.2,27.9-46.1,81.2-117.4,22.4c-71.3-58.7-96.5,8.4-67.1,79.7
					c20.8,50.5,79.4,136.3,111.9,182.2c16.1-21.4,37-49.4,64.3-85.7C2774,2267.7,2810.6,2234.5,2826,2201.9z"/>
			</g>
			<path class="st5" d="M2252.4,1669.7c-29.4-51.5-54.5-273.8-192.9-315.7c-138.4-41.9-293.6,37.7-293.6,37.7s-25.2,37.7,50.3,58.7
				c75.5,21,16.8,92.3,92.3,167.8c75.5,75.5,184.5,88.1,234.9,88.1S2252.4,1669.7,2252.4,1669.7z"/>
			<path class="st1" d="M2045.2,1439.2c-60.6-0.6-102.6,60.6-79.8,116.8c4.5,11,10.5,22.3,18.5,33.6c41.4,57.8,86.6,67.5,122.9,61.5
				c45.2-7.4,77.3-48.1,74.7-93.9c-2.7-46.7-22-104.8-99-115.2C2069,1440.2,2056.5,1439.3,2045.2,1439.2z"/>
			
				<ellipse transform="matrix(0.3789 -0.9254 0.9254 0.3789 -98.9491 2825.991)" class="st5" cx="2055.9" cy="1486.7" rx="64.1" ry="26.5"/>
			<path class="st5" d="M1644.2,1307.8c-47.5,67.1-215.3,118.3-212.5,238.1c2.8,119.8,134.2,172.4,41.9,304.1
				s-109.5,197.6,26.3,272.3c135.8,74.7,73.6,133.4,111.7,222.9c38.1,89.5,222.7,48.4,300.9,71.8c0,0-33.6-46.6-125.8-91.3
				c-92.3-44.7-30.5-152.2-129.9-203.3c-99.4-51.1-133-67.9-102.2-149s28-179,0-267s-19.6-199.9,41.9-267
				C1658.2,1372.1,1644.2,1307.8,1644.2,1307.8z"/>
			<path class="st5" d="M2204.2,2492.4c-40.9-22.5-57.1-169.6-133.8-264.7c-76.7-95.1-140-223-111.3-299.2
				c28.7-76.2,119-83.1,119-83.1s-25.1-73.5-126.1-115.4c-100.9-41.9-221.9-165.6-226.3-243.3c0,0-33.1,50.4,0,131.4
				c33.1,81.1,103,170.7,139.4,181.8s-81.1,139.7-44.7,240.4c36.3,100.7,220.9,204.2,250,290.8
				C2125.2,2494,2204.2,2492.4,2204.2,2492.4z"/>
			<path class="st5" d="M1033.7,1587.4c0,0,121.2,144.7,157.5,279.3c36.3,134.6,111.8,61.9,170.6,313.5
				c58.7,251.7,58.3,260,138.2,338.3c0,0-188.3-39.1-233.1-176.2c-44.9-137-40.3-178.8-104.1-248.8c-63.8-70-77.8-192.8-83.4-293.6
				C1073.8,1699.2,1033.7,1587.4,1033.7,1587.4z"/>
			<g>
				<path class="st5" d="M2382.2,1267.4c-121.6-23.7-291.4,9.3-396.9,18c-137.9,11.3-229.3-22.4-198.5-92.3
					c30.8-69.9,125.8-39.1,283.6-16.8c142.8,20.2,165.9,22.2,233.3,5.7c0,0,0,0,0,0c41,23.7,66.7,44.1,70.3,58.6
					C2375.5,1246.8,2378.3,1255.8,2382.2,1267.4z"/>
				<path class="st5" d="M1901.1,1014.2c-30.3,10-59.2,21.5-77.9,33.7c-55.9,36.5-137,148.1-166.2,86.5
					c-22.3-46.9,66.5-97.1,164.5-145.5C1847.9,996.9,1874.5,1005.4,1901.1,1014.2z"/>
				<path class="st5" d="M1332.3,3120.4c-4.8,19.7-9.8,39.8-14.8,60.2c-41.3-58.5-101.4-133.7-179.4-206.3
					c-162.2-151-198.5-215.3-262.8-436.2s22.4-548-14-671.4c-36.4-123.4-109.1-427.4-106.2-524.9c1.3-44,2.5-87.4,3.5-121.7
					c45.2-37.2,81.8-65.3,105.5-80c18.5-11.5,38.4-23.7,59.5-36.3c-7.3,100.4-15.9,308.1,30,383.9c61.5,101.6,53.1,429.7,55.9,594.6
					c2.8,165-5.6,567.6,55.9,659.9C1121.2,2825.9,1234.5,2962.5,1332.3,3120.4z"/>
				<path class="st5" d="M648.8,2244.5c0,0-22.4-212.5-167.8-444.5c-54.2-86.5-79.3-177-89.4-256.4c66.1-60.3,132.8-120.5,195-175.5
					c27,70.7,61.2,164.8,101.3,284.6C794.2,1969.5,648.8,2244.5,648.8,2244.5z"/>
				<path class="st5" d="M1254.8,3431c-21.2,82.2-42.5,162-62.7,232.7c-34.8-19.6-74.8-41.4-118.2-63.7
					c-145.4-74.9-307.6-279-330-469.1c-22.4-190.1-131.4-617-165-714c-33.5-96.9-47.5-147.3-47.5-147.3s181.8,156.6,271.2,450.2
					c89.5,293.6,62.3,360.7,249.2,497.7C1128.9,3274,1199,3355.1,1254.8,3431z"/>
				<path class="st5" d="M752.3,3656.5c0,0-184.5-405.4-304.8-564.8c-120.2-159.4-220.9-397-240.7-599.3
					c-19.9-202.3-33.3-359.8-114.4-502.9c-27.2-48.1-41.2-90-47.8-124.4c67.6-63.4,160.3-150,259.8-241.6
					c92.5,116.9,124.5,463.4,112.4,621c-14,181.7,55.9,514.5,209.7,847.2C780.2,3424.5,752.3,3656.5,752.3,3656.5z"/>
				<path class="st5" d="M749.2,3929.9c-39.3-5.7-298.1-52.7-486.2-318.1c-204.1-287.9-195.6-675.1-288-760.5
					c-15.4-14.3-28.4-30.3-39.1-47.6v-362c71.6,72.5,273.7,292.2,310.4,496.3c44.7,248.9,218.1,724.2,346.7,861.2
					C694.1,3906.9,735.9,3926.5,749.2,3929.9z"/>
				<path class="st5" d="M754.2,3930.5c0,0-1.5,0.2-5-0.7C752.5,3930.4,754.2,3930.5,754.2,3930.5z"/>
			</g>
			<path class="st5" d="M2204.2,2331.2c-4.8-36.9,52.4-55.9,153-39.1c100.7,16.8,83.9,78.3,83.9,78.3s-30.8-47.6-75.5-42
				C2320.9,2334,2213.3,2401.1,2204.2,2331.2z"/>
			<path class="st5" d="M2153.1,2155.5c0,0,52.4-73.1,153-51.2c100.7,21.9,83.9,102.4,83.9,102.4s-30.8-62.3-75.5-54.9
				C2269.7,2159.2,2162.2,2246.9,2153.1,2155.5z"/>
			<g>
				<path class="st3" d="M1384.9,881.5c-62.3,135.5-27.2,152.3,0,191.4c27.2,39.1-90.2,173.4-95.8,201.3
					c-5.6,28,169.3,50.3,95.8,195.7c68.8-53.5,195.1-399.4,226.8-488.4c-33.6-37.7-53.1-121.2-76.5-221.8
					C1500,608.8,1447.2,746,1384.9,881.5z"/>
				<path class="st5" d="M1500,608.8c-96.7-16.8-238,289-403.9,520.1c-220.8,307.6,209.8,402.6,288.9,341.1
					c73.5-145.4-101.4-167.8-95.8-195.7c5.6-28,123-162.2,95.8-201.3c-27.2-39.1-62.3-55.9,0-191.4
					c62.3-135.5,115.1-272.7,150.2-121.7c23.4,100.6,43,184.1,76.5,221.8c4.7-13.3,7.4-20.9,7.4-20.9S1596.7,625.5,1500,608.8z"/>
			</g>
		</g>
	</g>
	<g>
		<defs>
			<rect id="SVGID_00000023974900363774547380000004612983890955253676_" width="3000" height="3700"/>
		</defs>
		<clipPath id="SVGID_00000003812508689610832360000015179021951197820593_">
			<use xlink:href="#SVGID_00000023974900363774547380000004612983890955253676_"  style="overflow:visible;"/>
		</clipPath>
		<path style="clip-path:url(#SVGID_00000003812508689610832360000015179021951197820593_);fill:#FFFFFF;" d="M2287.5,4079.4
			c0,0-146.2-668.3-530.4-535.9c0,0,253.7-207.3,487.7,31.8c234,239.1,208.6,446.9,208.6,446.9s32.7-692.7-647.9-855.9
			c0,0,574.9-178.1,742.4,283.7c167.5,461.8,167.5,461.8,167.5,461.8s-361.3-868.1,120.7-1220.6c0,0-288.2,758.8,84.3,1170
			c0,0-168.6-778,175.6-896.6c0,0-194.8,574.4,141.5,809.2C3556.7,3996.7,2287.5,4079.4,2287.5,4079.4z"/>
	</g>
</g>
</svg>
